<svg id="Layer_1" data-name="Layer 1" xmlns="http://www.w3.org/2000/svg" xmlns:xlink="http://www.w3.org/1999/xlink" viewBox="0 0 384.62 281.23"><defs><linearGradient id="linear-gradient" x1="126.49" y1="242.44" x2="126.97" y2="187.39" gradientUnits="userSpaceOnUse"><stop offset="0.01"/><stop offset="0.13" stop-opacity="0.69"/><stop offset="1" stop-opacity="0"/></linearGradient><linearGradient id="linear-gradient-2" x1="249.52" y1="181.75" x2="249.81" y2="229.33" xlink:href="#linear-gradient"/><linearGradient id="linear-gradient-3" x1="239.16" y1="251.35" x2="254.93" y2="6.95" gradientUnits="userSpaceOnUse"><stop offset="0.01" stop-color="#fff"/><stop offset="0.13" stop-color="#fff" stop-opacity="0.69"/><stop offset="1" stop-color="#68e1fd" stop-opacity="0"/></linearGradient><linearGradient id="linear-gradient-4" x1="201.25" y1="103.95" x2="220.5" y2="103.95" xlink:href="#linear-gradient-3"/><linearGradient id="linear-gradient-5" x1="202.94" y1="103.8" x2="218.75" y2="103.8" xlink:href="#linear-gradient"/><linearGradient id="linear-gradient-6" x1="197.31" y1="97.06" x2="275.49" y2="97.06" xlink:href="#linear-gradient"/><linearGradient id="linear-gradient-7" x1="198.1" y1="97.31" x2="273.7" y2="97.31" xlink:href="#linear-gradient"/><linearGradient id="linear-gradient-8" x1="219.97" y1="173.15" x2="227.85" y2="62.21" xlink:href="#linear-gradient"/><linearGradient id="linear-gradient-9" x1="265.53" y1="176.39" x2="273.41" y2="65.45" xlink:href="#linear-gradient"/><linearGradient id="linear-gradient-10" x1="262.77" y1="126.84" x2="306.98" y2="127.41" xlink:href="#linear-gradient"/><linearGradient id="linear-gradient-11" x1="204.81" y1="101.19" x2="295.1" y2="101.19" xlink:href="#linear-gradient-3"/><linearGradient id="linear-gradient-12" x1="235.31" y1="38.93" x2="237.56" y2="109.13" xlink:href="#linear-gradient"/><linearGradient id="linear-gradient-13" x1="207.62" y1="80.35" x2="293.22" y2="80.35" xlink:href="#linear-gradient-3"/><linearGradient id="linear-gradient-14" x1="249.57" y1="108.39" x2="249.57" y2="24.49" xlink:href="#linear-gradient-3"/><linearGradient id="linear-gradient-15" x1="249.75" y1="66" x2="269.15" y2="66" xlink:href="#linear-gradient"/><linearGradient id="linear-gradient-16" x1="226.21" y1="37.09" x2="251.74" y2="37.09" xlink:href="#linear-gradient-3"/><linearGradient id="linear-gradient-17" x1="-27.22" y1="198.36" x2="128.95" y2="220.13" gradientUnits="userSpaceOnUse"><stop offset="0.01"/><stop offset="0.13" stop-opacity="0.69"/><stop offset="0.64" stop-opacity="0.25"/><stop offset="1" stop-opacity="0"/></linearGradient><linearGradient id="linear-gradient-18" x1="126.37" y1="164.16" x2="128.34" y2="208.64" xlink:href="#linear-gradient"/><linearGradient id="linear-gradient-19" x1="9.44" y1="182.72" x2="107.24" y2="214.44" xlink:href="#linear-gradient-17"/></defs><title>4</title><path d="M13,203.59c-1.2,18.41,3.32,37.35,13.78,52.55,19.45,28.27,55.91,39.78,90.16,41.68s68.64-3.85,102.85-1.28c26.62,2,53.41,9,79.68,4.26,24.1-4.37,45.49-18.4,63.53-35,17.79-16.35,33.79-37.39,34.41-61.55.4-15.4-5.53-30.23-12.23-44.1C345.3,77.78,261.07.22,162.28,26.35c-18.14,4.8-35.71,13.09-49,26.28C96.84,68.85,88,91.14,73.51,109.11c-13.3,16.52-31.13,29.12-43.44,46.39A93.89,93.89,0,0,0,13,203.59" transform="translate(-12.76 -21.19)" fill="#90be6d" opacity="0.18" style="isolation:isolate"/><path d="M195.24,225.3a20.1,20.1,0,0,0,2.39,6.35c-4.38,2.15-9.39,2.48-14.26,2.67-34.55,1.34-69.76-2.53-103.26,6a8.49,8.49,0,0,0-3.16,1.3c-3.3,2.53-1.44,7.92,1.45,10.93,5.92,6.16,14.51,8.87,22.84,10.77,24.71,5.62,50.34,6.06,75.62,4.33,6.08-.41,12.25-1,17.94-3.16s10.93-6.22,13.24-11.86c1.53-3.76,2.1-8.53,5.7-10.4a11.61,11.61,0,0,1,5.14-.89l39.68-.81c12-.24,24.6-.65,34.93-6.76,3.56-2.1,6.83-5,8.45-8.77s1.24-8.63-1.69-11.53-7.5-3.26-11.65-3.39q-20.46-.63-41,0-10.41.31-20.8.95c-6.07.37-13.12,0-19,1.56-5.58,1.5-5.25,7.23-5.42,12.05C201.91,224.67,195.18,225,195.24,225.3Z" transform="translate(-12.76 -21.19)" fill="#90be6d" opacity="0.18" style="isolation:isolate"/><ellipse cx="126.71" cy="217.29" rx="62.69" ry="24.22" fill="#fff"/><ellipse cx="126.71" cy="217.29" rx="62.69" ry="24.22" fill="#90be6d"/><ellipse cx="126.71" cy="217.29" rx="62.69" ry="24.22" fill="url(#linear-gradient)"/><ellipse cx="126.71" cy="210.95" rx="62.69" ry="24.22" fill="#fff"/><path d="M172,231.33a40.14,40.14,0,0,1-51.27,10.57c-3.84-2.13-7.49-5-11.84-5.54-4.63-.63-9.83,1.27-13.73-1.3a12,12,0,0,1-4-5.36,5.58,5.58,0,0,1-.68-3c.28-2,2.47-3.13,4.46-3.27s4,.4,6,.28a30.12,30.12,0,0,0,5.56-1.31,44.54,44.54,0,0,1,10.44-1l40.39-.65C164,220.64,180,221,172,231.33Z" transform="translate(-12.76 -21.19)" fill="#90be6d" opacity="0.18" style="isolation:isolate"/><path d="M209.43,198.38a17.26,17.26,0,0,0-5,17c2.62,10.7,17.5,16.32,35.71,17.45s41.85.2,53.07-18c8.5-13.8-9.57-16.44-9.57-16.44Z" transform="translate(-12.76 -21.19)" fill="#90be6d"/><path d="M209.43,198.38a17.26,17.26,0,0,0-5,17c2.62,10.7,17.5,16.32,35.71,17.45s41.85.2,53.07-18c8.5-13.8-9.57-16.44-9.57-16.44Z" transform="translate(-12.76 -21.19)" fill="url(#linear-gradient-2)"/><path d="M202.23,109.43s6.9,5.35,7.18,10.42,0,85,0,85,12.76,18.58,41,15.76,37.83-15.76,37.83-15.76V102S221.8,91.13,202.23,109.43Z" transform="translate(-12.76 -21.19)" fill="#90be6d" stroke="#90be6d" stroke-miterlimit="10"/><path d="M202.23,109.43s6.9,5.35,7.18,10.42,0,85,0,85,12.76,18.58,41,15.76,37.83-15.76,37.83-15.76V102S221.8,91.13,202.23,109.43Z" transform="translate(-12.76 -21.19)" fill="url(#linear-gradient-3)"/><path d="M204.81,97.46s-5.82,8.87-2.58,12,18.27-1.91,18.27-1.91S206.13,103.38,204.81,97.46Z" transform="translate(-12.76 -21.19)" fill="#90be6d"/><path d="M204.81,97.46s-5.82,8.87-2.58,12,18.27-1.91,18.27-1.91S206.13,103.38,204.81,97.46Z" transform="translate(-12.76 -21.19)" fill="url(#linear-gradient-4)"/><path d="M205.86,98.47s-4.77,7.28-2.12,9.83,15-1.57,15-1.57S206.94,103.32,205.86,98.47Z" transform="translate(-12.76 -21.19)" fill="url(#linear-gradient-5)"/><ellipse cx="236.4" cy="97.06" rx="39.09" ry="11.54" fill="#90be6d" stroke="#90be6d" stroke-miterlimit="10" stroke-width="1.19"/><ellipse cx="236.4" cy="97.06" rx="39.09" ry="11.54" fill="url(#linear-gradient-6)"/><ellipse cx="235.9" cy="97.31" rx="37.8" ry="9.38" fill="url(#linear-gradient-7)"/><path d="M209.52,130.73s18.94,6.57,21.19,13.14,2.07,58.57,0,59.13-14.64-1.31-20.64-11.83Z" transform="translate(-12.76 -21.19)" fill="#90be6d" stroke="#90be6d" stroke-miterlimit="10" stroke-width="1.19"/><path d="M256.43,140.49s-7.88.76-9.38,8.45,0,54.15,0,54.15.56,5.35,6,4.79,24.87-1.88,30-11.07S285,139.18,285,139.18s0-2.25-2.06-2.25C282.9,136.93,273.14,141.43,256.43,140.49Z" transform="translate(-12.76 -21.19)" fill="#90be6d" stroke="#90be6d" stroke-miterlimit="10" stroke-width="1.19"/><path d="M209.52,130.73s18.94,6.57,21.19,13.14,2.07,58.57,0,59.13-14.64-1.31-20.64-11.83Z" transform="translate(-12.76 -21.19)" fill="url(#linear-gradient-8)"/><path d="M256.43,140.49s-7.88.76-9.38,8.45,0,54.15,0,54.15.56,5.35,6,4.79,24.87-1.88,30-11.07S285,139.18,285,139.18s0-2.25-2.06-2.25C282.9,136.93,273.14,141.43,256.43,140.49Z" transform="translate(-12.76 -21.19)" fill="url(#linear-gradient-9)"/><path d="M291.63,98.77s15.87,11.17,15.72,25.11c-.13,12-.52,15.68-19.1,31.72v-7s14.36-11.12,13.51-26.75-14.84-17.37-14.84-17.37Z" transform="translate(-12.76 -21.19)" fill="#90be6d"/><path d="M291.63,98.77s15.87,11.17,15.72,25.11c-.13,12-.52,15.68-19.1,31.72v-7s14.36-11.12,13.51-26.75-14.84-17.37-14.84-17.37Z" transform="translate(-12.76 -21.19)" fill="url(#linear-gradient-10)"/><path d="M204.81,97.46v-7.7H295.1v8.31s-15.39,18.21-52,13.89S204.81,97.46,204.81,97.46Z" transform="translate(-12.76 -21.19)" fill="#90be6d"/><path d="M204.81,97.46v-7.7H295.1v8.31s-15.39,18.21-52,13.89S204.81,97.46,204.81,97.46Z" transform="translate(-12.76 -21.19)" fill="url(#linear-gradient-11)"/><ellipse cx="236.26" cy="68.57" rx="44.2" ry="14.7" fill="#90be6d"/><ellipse cx="236.26" cy="68.57" rx="44.2" ry="14.7" fill="url(#linear-gradient-12)"/><path d="M208.57,85.78s0-22,28.15-26.19,51,8.45,52.93,14.64a139.88,139.88,0,0,1,3.57,16.33s-19.55,14.68-50.59,10.7C198.71,95.63,208.57,85.78,208.57,85.78Z" transform="translate(-12.76 -21.19)" fill="#90be6d"/><path d="M208.57,85.78s0-22,28.15-26.19,51,8.45,52.93,14.64a139.88,139.88,0,0,1,3.57,16.33s-19.55,14.68-50.59,10.7C198.71,95.63,208.57,85.78,208.57,85.78Z" transform="translate(-12.76 -21.19)" fill="url(#linear-gradient-13)"/><path d="M215.27,77.84c14.69,9.6,33.26,11,50.78,9.91a36.28,36.28,0,0,0,11-1.91c3.49-1.36,6.69-3.88,8-7.37s.44-8-2.67-10c-1.83-1.22-4.11-1.51-6.26-2-2.9-.63-5.69-1.62-8.53-2.43a72.14,72.14,0,0,0-34-1.39C230.18,63.32,206.76,72.28,215.27,77.84Z" transform="translate(-12.76 -21.19)" fill="url(#linear-gradient-14)"/><path d="M261,70.8a13.22,13.22,0,0,0,6.78-3.67c1-1,1.73-2.5,1.23-3.81s-1.89-1.85-3.2-2.14a27.61,27.61,0,0,0-5.74-.51,10.55,10.55,0,0,0-4.58.65c-2.34,1.07-6.81,5.56-5.5,8.46.75,1.65,2.83,1.47,4.35,1.52A25.65,25.65,0,0,0,261,70.8Z" transform="translate(-12.76 -21.19)" fill="url(#linear-gradient-15)"/><circle cx="238.98" cy="37.09" r="12.76" fill="#90be6d"/><circle cx="238.98" cy="37.09" r="12.76" fill="url(#linear-gradient-16)"/><path d="M178.86,190.09c0,19-6,51.19-39.39,51.19-30.76,0-39.39-32.14-39.39-51.19,0-11.13,17.63-23.18,39.39-23.18S178.86,176.71,178.86,190.09Z" transform="translate(-12.76 -21.19)" fill="#fff"/><path d="M125.5,209.56l-3.76,1.07a1.77,1.77,0,0,0-1.06.58,1.75,1.75,0,0,0-.12,1.24,42.79,42.79,0,0,0,15.72,27.06c.31.24.66.62.48,1a.84.84,0,0,1-.6.34c-4.22,1-8.72-.29-12.44-2.53s-6.77-5.4-9.77-8.53a47.74,47.74,0,0,1-6.39-7.67,45.11,45.11,0,0,1-4.24-9.89c-1.28-3.88-3.66-9.31-3.18-13.48.14-1.26,1-3.12,2.54-2.85,1.22.21,2.59,2.76,3.42,3.62a34.39,34.39,0,0,0,9,6.72C117.46,207.42,122.85,210.31,125.5,209.56Z" transform="translate(-12.76 -21.19)" fill="url(#linear-gradient-17)"/><ellipse cx="126.71" cy="166.18" rx="34.54" ry="16.72" fill="#90be6d"/><path d="M174,187.37a9.35,9.35,0,0,1-1.92,5.5c-4.7,6.53-17.53,11.22-32.62,11.22s-27.92-4.69-32.62-11.22a9.35,9.35,0,0,1-1.92-5.5c0-9.24,15.47-16.72,34.54-16.72S174,178.13,174,187.37Z" transform="translate(-12.76 -21.19)" fill="#90be6d"/><ellipse cx="126.71" cy="171.68" rx="32.62" ry="11.22" fill="url(#linear-gradient-18)"/><path d="M113.59,228.33c-25.34,5.44-33.6-17.27-28.72-25.24s20-4.71,20-4.71l-.47,2.44-.62,3.28c-15.77-.39-13.14,6.59-10.33,13.53s17.27,5.07,17.27,5.07l1.7,3.39Z" transform="translate(-12.76 -21.19)" fill="#fff"/><path d="M112.47,226.09c-21.92,1.7-28.95-15-24.36-21,3.34-4.43,11.52-4.59,16.34-4.25l-.62,3.28c-15.77-.39-13.14,6.59-10.33,13.53s17.27,5.07,17.27,5.07Z" transform="translate(-12.76 -21.19)" fill="url(#linear-gradient-19)"/></svg>